<svg width="136" height="136" viewBox="0 0 136 136" fill="none" xmlns="http://www.w3.org/2000/svg">
<g filter="url(#filter0_d_2005_13810)">
<rect x="4" width="128" height="128" fill="#FF4313"/>
<path d="M67.81 87.33C82.12 87.33 90.94 76.53 90.94 60.96V60.24C90.94 45.84 82.48 34.14 67.63 34.14C52.69 34.14 44.05 45.12 44.05 60.42V61.14C44.05 76.71 54.4 87.33 67.81 87.33ZM67.81 93.81C48.82 93.81 35.95 79.23 35.95 61.23V60.51C35.95 42.24 48.73 27.84 67.63 27.84C86.53 27.84 99.04 42.24 99.04 60.33V61.05C99.04 79.23 86.53 93.81 67.81 93.81Z" fill="white"/>
</g>
<defs>
<filter id="filter0_d_2005_13810" x="0" y="0" width="136" height="136" filterUnits="userSpaceOnUse" color-interpolation-filters="sRGB">
<feFlood flood-opacity="0" result="BackgroundImageFix"/>
<feColorMatrix in="SourceAlpha" type="matrix" values="0 0 0 0 0 0 0 0 0 0 0 0 0 0 0 0 0 0 127 0" result="hardAlpha"/>
<feOffset dy="4"/>
<feGaussianBlur stdDeviation="2"/>
<feComposite in2="hardAlpha" operator="out"/>
<feColorMatrix type="matrix" values="0 0 0 0 0 0 0 0 0 0 0 0 0 0 0 0 0 0 0.25 0"/>
<feBlend mode="normal" in2="BackgroundImageFix" result="effect1_dropShadow_2005_13810"/>
<feBlend mode="normal" in="SourceGraphic" in2="effect1_dropShadow_2005_13810" result="shape"/>
</filter>
</defs>
</svg>
